# xmcd
#
# Track frame offsets: 
#        150
#        9667
#        31406
#        49598
#        70239
#        102517
#        117441
#        148250
#        192053
#        212587
#        228516
#        243316
#
# Disc length: 3504 seconds
#
# Revision: 0
# Processed by: cddbd v1.5.2PL0 Copyright (c) Steve Scherf et al.
# Submitted via: ExactAudioCopy v0.95a5
#
DISCID=a90dae0c
DTITLE=BRAD KELSEY - Just a Step Away
DYEAR=2006
DGENRE=Blues
TTITLE0=Latin Lady
TTITLE1=Baby I've Been
TTITLE2=Blues Daddy's Blues
TTITLE3=Wah Wah Willy
TTITLE4=Love Again
TTITLE5=My My
TTITLE6=Nostalgic Things
TTITLE7=Nasty Weather
TTITLE8=Once I Lived
TTITLE9=Straight Crazy
TTITLE10=See You This Morning
TTITLE11=Just a Step Away
EXTD=
EXTT0=
EXTT1=
EXTT2=
EXTT3=
EXTT4=
EXTT5=
EXTT6=
EXTT7=
EXTT8=
EXTT9=
EXTT10=
EXTT11=
PLAYORDER=
